PathFileType  4	(X/Y/Z) C:\Users\antoi\Documents\MyRepositories\mobilecap\ResultsAnalysis
DataRate	CameraRate	NumFrames	NumMarkers	Units	OrigDataRate	OrigDataStartFrame	OrigNumFrames
100.0	100.0	6	51	mm	100.0	35	136
Frame#	Time	r_knee			r_shank_antsup			r_ankle			r_calc			r_5meta			r_toe			L_knee			L_shank_antsup			L_ankle			L_calc			L_5meta			L_toe			r_sh2			r_sh3			r_sh4			L_sh2			L_sh3			r_thigh1			r_thigh2			r_thigh3			r_thigh4			r_thigh5			L_thigh1			L_thigh2			L_thigh3			L_thigh4			r.ASIS			r.PSIS			L.ASIS			L.PSIS			C7			R_Shoulder			L_Shoulder			R_Sternum			L_Sternum			R_humerus			R_elbow_med			R_elbow_lat			R_forearm			R_wrist_radius			R_wrist_ulna			L_humerus			L_elbow_med			L_elbow_lat			L_forearm			L_wrist_radius			L_wrist_ulna			R_HJC			L_HJC			R_HJC_reg			L_HJC_reg			
		X1	Y1	Z1	X2	Y2	Z2	X3	Y3	Z3	X4	Y4	Z4	X5	Y5	Z5	X6	Y6	Z6	X7	Y7	Z7	X8	Y8	Z8	X9	Y9	Z9	X10	Y10	Z10	X11	Y11	Z11	X12	Y12	Z12	X13	Y13	Z13	X14	Y14	Z14	X15	Y15	Z15	X16	Y16	Z16	X17	Y17	Z17	X18	Y18	Z18	X19	Y19	Z19	X20	Y20	Z20	X21	Y21	Z21	X22	Y22	Z22	X23	Y23	Z23	X24	Y24	Z24	X25	Y25	Z25	X26	Y26	Z26	X27	Y27	Z27	X28	Y28	Z28	X29	Y29	Z29	X30	Y30	Z30	X31	Y31	Z31	X32	Y32	Z32	X33	Y33	Z33	X34	Y34	Z34	X35	Y35	Z35	X36	Y36	Z36	X37	Y37	Z37	X38	Y38	Z38	X39	Y39	Z39	X40	Y40	Z40	X41	Y41	Z41	X42	Y42	Z42	X43	Y43	Z43	X44	Y44	Z44	X45	Y45	Z45	X46	Y46	Z46	X47	Y47	Z47	X48	Y48	Z48	X49	Y49	Z49	X50	Y50	Z50	X51	Y51	Z51	

35	0.34000000	208.85213	545.50991	-127.74216	229.21740	416.45330	-146.91292	106.79356	98.19308	-175.65513	43.46720	68.21957	-227.85199	234.90889	36.14966	-124.00272	278.02456	58.84621	-194.27960	379.60391	590.80398	-480.21502	394.12661	479.22932	-457.93740	167.14147	216.62141	-394.94002	107.88075	227.55512	-332.60485	249.78947	78.83225	-422.79286	296.94513	90.80233	-362.42818	220.20810	305.96689	-173.79608	166.45855	409.45546	-102.65670	163.22293	292.60779	-112.89383	312.98999	511.85726	-485.02070	278.59303	395.34852	-483.49064	323.39673	773.52757	-131.49618	317.01940	663.29206	-152.15336	282.04597	630.63276	-101.45569	237.27690	762.60326	-58.01283	231.67717	649.94008	-86.30956	349.21713	849.58966	-480.56772	420.42809	732.42022	-483.00529	255.03623	792.95970	-501.49160	327.95439	674.18972	-503.37683	291.34351	1054.19188	-125.20542	80.93201	1084.54925	-197.47247	275.32461	1052.45938	-388.62160	71.43960	1084.45554	-294.90044	142.53650	1581.90997	-241.52065	234.23391	1508.59708	-67.14022	199.44435	1541.35734	-427.80696	285.98009	1508.10604	-234.17784	279.79529	1506.71054	-281.09003	258.92717	1339.98008	-2.25658	180.20193	1116.22894	-28.14851	215.41928	1139.80511	43.44588	325.79450	1004.94033	28.34734	373.15218	891.70377	26.39081	348.11852	878.70853	59.18019	168.87084	1375.02772	-522.78630	69.30568	1173.83242	-482.81664	92.50854	1191.02604	-558.93249	172.82990	1042.79333	-565.96639	181.84651	926.94793	-600.46878	146.21827	933.42447	-633.17597	208.05922	972.94792	-155.14147	198.07093	961.15576	-367.96671	219.87502	973.30667	-155.81624	202.97976	973.13636	-329.17589	
36	0.35000000	212.68545	545.13880	-128.00153	231.70306	416.11810	-147.02572	106.97089	98.51783	-175.82031	43.46949	68.43416	-227.96023	234.95299	36.18920	-123.97956	278.12089	58.75090	-194.22607	395.58626	592.32313	-478.36662	414.78443	480.98876	-457.18263	203.74926	204.57745	-395.14779	144.64537	210.96412	-332.31924	294.89795	72.70340	-425.08215	341.89106	87.27136	-365.10993	221.88766	305.69810	-173.83257	168.74711	409.60258	-102.87522	164.64846	292.77647	-113.03956	331.68781	509.39640	-483.01728	303.83688	391.23198	-482.75962	330.85666	771.65390	-132.07629	323.71722	661.70471	-152.60385	287.99443	629.63529	-101.88597	244.63709	761.90902	-58.33259	237.70762	649.32902	-86.70777	363.56060	851.66666	-479.02205	435.71718	734.84769	-480.88667	270.84943	794.50428	-501.82259	344.20066	676.19232	-502.70984	302.58554	1053.07689	-124.69960	92.45259	1084.27013	-197.78716	287.76476	1052.69347	-388.04103	83.32846	1084.49610	-295.29749	155.36385	1581.69372	-241.64237	247.62031	1508.77027	-67.47363	211.03696	1540.57708	-428.04612	298.68108	1507.78499	-234.78947	292.22745	1506.19023	-281.68208	273.62383	1340.64745	-2.35952	196.57738	1116.02884	-26.69129	232.26126	1140.21318	44.49509	344.13392	1006.68237	28.44129	392.91109	894.09069	26.19336	368.26933	880.76623	59.15797	178.05680	1374.77823	-523.12583	76.27380	1174.67536	-482.93899	98.62618	1192.04205	-559.25677	177.78773	1043.09797	-568.05654	185.62105	927.43524	-603.22566	149.22819	933.89603	-634.79339	219.20974	972.16547	-155.36839	210.21936	961.39650	-368.29454	231.06784	972.79613	-155.80334	214.84580	973.19574	-329.12700	
37	0.36000000	216.61814	544.74288	-128.31036	234.19907	415.77101	-147.15835	107.19044	98.79720	-176.04204	43.37552	68.71073	-228.09352	234.98164	36.22031	-123.96134	278.22148	58.67579	-194.16167	410.57726	593.05145	-476.20950	434.54216	482.23895	-456.27858	241.05098	192.34505	-395.72512	182.48753	194.05409	-332.36030	340.46328	67.08890	-428.00815	387.11728	84.34093	-368.50458	223.60994	305.44276	-173.88377	171.05308	409.75277	-103.14059	166.05658	292.96067	-113.22103	349.71743	506.18398	-480.79830	328.71452	386.68240	-482.00704	338.38592	769.67105	-132.68879	330.47696	660.00667	-153.21626	293.98856	628.56725	-102.42593	252.10210	761.11367	-58.79449	243.76670	648.60615	-87.24582	377.62052	853.01636	-477.24946	450.40858	736.39268	-478.67850	286.86907	795.80387	-502.19460	359.59753	677.46906	-501.60109	313.91090	1051.76661	-124.33756	104.09073	1083.76811	-198.17865	300.06732	1052.57672	-387.62646	95.25963	1084.32102	-295.74745	168.21134	1581.24864	-241.87940	260.93542	1508.65546	-67.84800	222.77975	1539.50998	-428.36054	311.42281	1507.19720	-235.42285	304.68211	1505.39205	-282.29258	288.17965	1341.02299	-2.48900	212.82624	1115.56896	-25.36200	248.96288	1140.37278	45.42076	362.33518	1008.20092	28.43961	412.50338	896.27747	25.92341	388.28815	882.63491	59.04798	187.53732	1374.20264	-523.41674	83.55895	1175.21767	-482.89910	105.02542	1192.75806	-559.44781	182.94943	1043.09405	-570.00553	189.59135	927.65317	-605.85436	152.35927	934.09939	-636.21219	230.42469	971.18321	-155.67603	222.28742	961.32349	-368.68371	242.34332	971.98332	-155.89086	226.65550	972.96524	-329.19088	
38	0.37000000	220.61545	544.33087	-128.64510	236.69118	415.41930	-147.30166	107.43442	99.03372	-176.31098	43.24223	69.01860	-228.25273	234.99556	36.24215	-123.94687	278.31830	58.61773	-194.08974	424.56249	592.92804	-473.72598	453.39062	482.96663	-455.19236	278.98775	180.13638	-396.72600	221.36405	177.10469	-332.74729	386.34316	62.18748	-431.60585	432.49932	82.23774	-372.67380	225.35770	305.19861	-173.94191	173.37119	409.91591	-103.43925	167.44804	293.16682	-113.42209	367.07603	502.21393	-478.35554	353.21578	381.72659	-481.22243	346.01285	767.56715	-133.31905	337.28909	658.19561	-153.94840	299.94935	627.38223	-103.08524	259.68285	760.21218	-59.38884	249.78172	647.76247	-87.91707	391.36224	853.57399	-475.27766	464.47830	737.00660	-476.38476	302.98371	796.74875	-502.56459	374.08510	677.90990	-500.02787	325.33832	1050.27346	-124.10498	115.86810	1083.03918	-198.64249	312.23349	1052.07521	-387.35322	107.25563	1083.91123	-296.23065	181.07718	1580.57004	-242.22613	274.18272	1508.27009	-68.26903	234.67176	1538.17405	-428.75431	324.20107	1506.35589	-236.08023	317.16997	1504.32999	-282.92635	302.59815	1341.12177	-2.66707	228.96556	1114.87144	-24.17111	265.51070	1140.29959	46.21609	380.38034	1009.50668	28.34364	431.91677	898.27178	25.57768	408.14600	884.32379	58.84735	197.30486	1373.31762	-523.66724	91.19599	1175.46455	-482.68928	111.79793	1193.13325	-559.48828	188.39740	1042.80420	-571.80133	193.82165	927.61104	-608.32485	155.69341	934.04251	-637.43536	241.72188	970.00689	-156.03101	234.28711	960.90421	-369.10083	253.71639	970.87458	-156.04983	238.42310	972.42442	-329.33180	
39	0.38000000	224.64639	543.90364	-128.98059	239.18216	415.06475	-147.44193	107.68535	99.23696	-176.61433	43.12945	69.32294	-228.43614	234.99211	36.25007	-123.93430	278.40520	58.57052	-194.01020	437.54811	591.89995	-470.91918	471.32794	483.17261	-453.90316	317.47598	168.20038	-398.19708	261.21268	160.42398	-333.50739	432.36044	58.25586	-435.89418	477.88029	81.20687	-377.63451	227.11516	304.95522	-173.99653	175.70022	410.09415	-103.75336	168.83291	293.39391	-113.62408	383.77251	497.48645	-475.70242	377.33858	376.40600	-480.40832	353.76145	765.33060	-133.95734	344.10342	656.26442	-154.73551	305.82818	626.04785	-103.85009	267.36981	759.20109	-60.07374	255.71834	646.80104	-88.69208	404.72467	853.26581	-473.18877	477.88100	736.62654	-474.00542	318.75954	797.09930	-502.76096	387.61939	677.42415	-497.98613	336.88787	1048.60475	-123.99328	127.79370	1082.08704	-199.16567	324.32764	1051.18160	-387.20681	119.34360	1083.24532	-296.73464	193.95944	1579.65251	-242.67834	287.36543	1507.63193	-68.74667	246.70820	1536.58820	-429.23037	337.00956	1505.27037	-236.76404	329.70641	1503.01993	-283.59243	316.88409	1340.96013	-2.90967	245.00381	1113.95587	-23.13434	281.88887	1140.00401	46.87679	398.24749	1010.60587	28.15852	451.13901	900.07812	25.15661	427.80553	885.83632	58.55640	207.35182	1372.14123	-523.88611	99.22594	1175.42023	-482.31616	119.01475	1193.14779	-559.37391	194.21026	1042.24926	-573.44002	198.37750	927.31345	-610.61512	159.33965	933.73430	-638.47647	253.12929	968.63943	-156.41173	246.26276	960.12745	-369.52650	265.20058	969.50357	-156.26201	250.19484	971.56257	-329.52874	
40	0.39000000	228.69532	543.45437	-129.29570	241.69356	414.70132	-147.56643	107.92921	99.42528	-176.93892	43.08111	69.59589	-228.63935	234.96590	36.23677	-123.92109	278.47860	58.52537	-193.91905	449.56375	589.92629	-467.81752	488.35657	482.87950	-452.40327	356.41542	156.82927	-400.16486	301.94665	144.34600	-334.67981	478.30773	55.61874	-440.86312	523.06052	81.49371	-383.32867	228.87954	304.69897	-174.03904	178.05143	410.27962	-104.06467	170.23392	293.63184	-113.81124	399.83882	492.01374	-472.88881	401.10062	370.78699	-479.58174	361.64693	762.95242	-134.59190	350.84960	654.20353	-155.50323	311.61928	624.55123	-104.67926	275.14701	758.07811	-60.79084	261.59531	645.73750	-89.52027	417.64578	852.01338	-471.09663	490.55613	735.17694	-471.53988	333.53407	796.53075	-502.53255	400.16962	675.95513	-495.48751	348.58671	1046.76496	-123.99869	139.87069	1080.92677	-199.72933	336.45647	1049.91986	-387.19663	131.55236	1082.30413	-297.25473	206.85528	1578.49128	-243.23461	300.48917	1506.75662	-69.29393	258.88311	1534.77063	-429.79034	349.84242	1503.94560	-237.47802	342.30823	1501.47702	-284.30129	331.04626	1340.55315	-3.22503	260.93645	1112.83855	-22.26783	298.08252	1139.49157	47.39930	415.91382	1011.50012	27.89053	470.15864	901.69816	24.66304	447.22919	887.17080	58.17728	217.67041	1370.69056	-524.08461	107.69673	1175.08095	-481.80643	126.71210	1192.80461	-559.11855	200.45463	1041.44220	-574.92542	203.31924	926.75665	-612.71468	163.41300	933.18367	-639.35687	264.68728	967.08422	-156.81461	258.28038	959.00751	-369.96076	276.81211	967.92967	-156.51575	262.03437	970.37856	-329.78002	
